name rise36.2859peak64.2979fall75.1499.mot
datacolumns 19
datarows 32
range 21.53658300000000 21.58824900000000
endheader
time	ground_force1_vx	ground_force1_vy	ground_force1_vz	ground_force1_px	ground_force1_py	ground_force1_pz	ground_force2_vx	ground_force2_vy	ground_force2_vz	ground_force2_px	ground_force2_py	ground_force2_pz	ground_torque1_x	ground_torque1_y	ground_torque1_z	ground_torque2_x	ground_torque2_y	ground_torque2_z	
21.53658300000000	-5.76369200000000	46.51040800000000	-13.36185400000000	0.38489500000000	0.00000000000000	0.08379300000000	-42.31188500000000	796.23682899999994	-58.90422900000000	0.20075900000000	0.00000000000000	-0.11190000000000	0.00000000000000	-10.98112000000000	0.00000000000000	0.00000000000000	-30.74512700000000	0.00000000000000	
21.53825300000000	-6.12280200000000	53.36372400000000	-14.66250300000000	0.38642900000000	0.00000000000000	0.08500800000000	-42.86299500000000	793.65156899999999	-58.48292900000000	0.19995600000000	0.00000000000000	-0.11179200000000	0.00000000000000	-12.09899300000000	0.00000000000000	0.00000000000000	-30.61311300000000	0.00000000000000	
21.53992100000000	-6.35315700000000	60.20448400000000	-15.78738800000000	0.38790500000000	0.00000000000000	0.08613400000000	-43.43102800000000	790.92660799999999	-58.03816000000000	0.19914600000000	0.00000000000000	-0.11168000000000	0.00000000000000	-13.08463600000000	0.00000000000000	0.00000000000000	-30.47920400000000	0.00000000000000	
21.54158300000000	-6.44531500000000	66.96770600000001	-16.71636000000000	0.38933300000000	0.00000000000000	0.08718300000000	-44.01564300000000	788.05966300000000	-57.56987000000000	0.19832900000000	0.00000000000000	-0.11156500000000	0.00000000000000	-13.92146400000000	0.00000000000000	0.00000000000000	-30.34342200000000	0.00000000000000	
21.54325200000000	-6.39583100000000	73.61275100000000	-17.44031100000000	0.39072000000000	0.00000000000000	0.08816400000000	-44.61640300000000	785.04842599999995	-57.07803400000000	0.19750500000000	0.00000000000000	-0.11144600000000	0.00000000000000	-14.60174000000000	0.00000000000000	0.00000000000000	-30.20577800000000	0.00000000000000	
21.54492100000000	-6.20669800000000	80.12295100000000	-17.96034000000000	0.39207200000000	0.00000000000000	0.08908600000000	-45.23276900000000	781.89056600000004	-56.56265200000000	0.19667500000000	0.00000000000000	-0.11132400000000	0.00000000000000	-15.12595700000000	0.00000000000000	0.00000000000000	-30.06626500000000	0.00000000000000	
21.54658100000000	-5.88444100000000	86.50331300000001	-18.28622200000000	0.39339400000000	0.00000000000000	0.08995500000000	-45.86410100000000	778.58373800000004	-56.02374900000000	0.19583800000000	0.00000000000000	-0.11119800000000	0.00000000000000	-15.50164200000000	0.00000000000000	0.00000000000000	-29.92486000000000	0.00000000000000	
21.54824900000000	-5.43899600000000	92.77683700000000	-18.43442300000000	0.39468900000000	0.00000000000000	0.09077700000000	-46.50965400000000	775.12558300000001	-55.46138300000000	0.19499600000000	0.00000000000000	-0.11106900000000	0.00000000000000	-15.74178400000000	0.00000000000000	0.00000000000000	-29.78152500000000	0.00000000000000	
21.54991400000000	-4.88251500000000	98.97998100000000	-18.42592100000000	0.39596100000000	0.00000000000000	0.09155500000000	-47.16857700000000	771.51373699999999	-54.87564000000000	0.19414900000000	0.00000000000000	-0.11093700000000	0.00000000000000	-15.86309500000000	0.00000000000000	0.00000000000000	-29.63620700000000	0.00000000000000	
21.55158400000000	-4.22819600000000	105.15781100000000	-18.28402500000000	0.39721400000000	0.00000000000000	0.09229500000000	-47.83991500000000	767.74584100000004	-54.26663600000000	0.19329700000000	0.00000000000000	-0.11080000000000	0.00000000000000	-15.88424800000000	0.00000000000000	0.00000000000000	-29.48883400000000	0.00000000000000	
21.55325500000000	-3.48923400000000	111.35927200000000	-18.03238000000000	0.39844800000000	0.00000000000000	0.09300000000000	-48.52260500000000	763.81954399999995	-53.63452400000000	0.19244000000000	0.00000000000000	-0.11066100000000	0.00000000000000	-15.82427000000000	0.00000000000000	0.00000000000000	-29.33931900000000	0.00000000000000	
21.55491500000000	-2.67796400000000	117.63294000000000	-17.69329800000000	0.39966500000000	0.00000000000000	0.09367300000000	-49.21547700000000	759.73251700000003	-52.97948800000000	0.19158000000000	0.00000000000000	-0.11051700000000	0.00000000000000	-15.70116500000000	0.00000000000000	0.00000000000000	-29.18756000000000	0.00000000000000	
21.55658000000000	-1.80521000000000	124.02351400000001	-17.28645800000000	0.40086800000000	0.00000000000000	0.09431600000000	-49.91725500000000	755.48245899999995	-52.30175000000000	0.19071600000000	0.00000000000000	-0.11037000000000	0.00000000000000	-15.53085600000000	0.00000000000000	0.00000000000000	-29.03343400000000	0.00000000000000	
21.55825500000000	-0.87988000000000	130.56917700000000	-16.82804900000000	0.40205600000000	0.00000000000000	0.09493200000000	-50.62655800000000	751.06711099999995	-51.60156900000000	0.18985000000000	0.00000000000000	-0.11021900000000	0.00000000000000	-15.32646200000000	0.00000000000000	0.00000000000000	-28.87680800000000	0.00000000000000	
21.55991900000000	0.09123000000000	137.29987700000001	-16.33031200000000	0.40323100000000	0.00000000000000	0.09552200000000	-51.34190200000000	746.48426900000004	-50.87924200000000	0.18898200000000	0.00000000000000	-0.11006400000000	0.00000000000000	-15.09790400000000	0.00000000000000	0.00000000000000	-28.71752700000000	0.00000000000000	
21.56159500000000	1.10342200000000	144.23650100000000	-15.80146800000000	0.40439400000000	0.00000000000000	0.09608900000000	-52.06170100000000	741.73179400000004	-50.13510600000000	0.18811200000000	0.00000000000000	-0.10990600000000	0.00000000000000	-14.85182700000000	0.00000000000000	0.00000000000000	-28.55542300000000	0.00000000000000	
21.56325300000000	2.15393600000000	151.39082800000000	-15.24594900000000	0.40554400000000	0.00000000000000	0.09663400000000	-52.78426900000000	736.80762900000002	-49.36953800000000	0.18724100000000	0.00000000000000	-0.10974400000000	0.00000000000000	-14.59176900000000	0.00000000000000	0.00000000000000	-28.39031400000000	0.00000000000000	
21.56494100000000	3.24165400000000	158.76613699999999	-14.66487700000000	0.40668300000000	0.00000000000000	0.09715900000000	-53.50782600000000	731.70981300000005	-48.58295800000000	0.18637100000000	0.00000000000000	-0.10957800000000	0.00000000000000	-14.31853100000000	0.00000000000000	0.00000000000000	-28.22200100000000	0.00000000000000	
21.56658000000000	4.36674600000000	166.35828900000001	-14.05669400000000	0.40780900000000	0.00000000000000	0.09766400000000	-54.23049800000000	726.43649800000003	-47.77582500000000	0.18550200000000	0.00000000000000	-0.10940800000000	0.00000000000000	-14.03068400000000	0.00000000000000	0.00000000000000	-28.05027000000000	0.00000000000000	
21.56825000000000	5.53026400000000	174.15712400000001	-13.41788300000000	0.40892400000000	0.00000000000000	0.09815100000000	-54.95032300000000	720.98596299999997	-46.94864500000000	0.18463400000000	0.00000000000000	-0.10923400000000	0.00000000000000	-13.72514400000000	0.00000000000000	0.00000000000000	-27.87489400000000	0.00000000000000	
21.56992000000000	6.73375400000000	182.14801000000000	-12.74369500000000	0.41002700000000	0.00000000000000	0.09862000000000	-55.66525600000000	715.35663499999998	-46.10196300000000	0.18376900000000	0.00000000000000	-0.10905600000000	0.00000000000000	-13.39776800000000	0.00000000000000	0.00000000000000	-27.69563400000000	0.00000000000000	
21.57158600000000	7.97888500000000	190.31339199999999	-12.02884000000000	0.41111700000000	0.00000000000000	0.09907300000000	-56.37317400000000	709.54710000000000	-45.23637100000000	0.18290700000000	0.00000000000000	-0.10887500000000	0.00000000000000	-13.04391300000000	0.00000000000000	0.00000000000000	-27.51223700000000	0.00000000000000	
21.57324800000000	9.26713800000000	198.63424499999999	-11.26808900000000	0.41219500000000	0.00000000000000	0.09951100000000	-57.07187800000000	703.55612499999995	-44.35250100000000	0.18204900000000	0.00000000000000	-0.10868900000000	0.00000000000000	-12.65893900000000	0.00000000000000	0.00000000000000	-27.32443900000000	0.00000000000000	
21.57491900000000	10.59956000000000	207.09131700000000	-10.45676400000000	0.41326100000000	0.00000000000000	0.09993300000000	-57.75910600000000	697.38266899999996	-43.45103100000000	0.18119700000000	0.00000000000000	-0.10850000000000	0.00000000000000	-12.23861000000000	0.00000000000000	0.00000000000000	-27.13196500000000	0.00000000000000	
21.57658000000000	11.97658500000000	215.66614500000000	-9.59110000000000	0.41431200000000	0.00000000000000	0.10034100000000	-58.43253100000000	691.02589999999998	-42.53268100000000	0.18035000000000	0.00000000000000	-0.10830600000000	0.00000000000000	-11.77940200000000	0.00000000000000	0.00000000000000	-26.93453000000000	0.00000000000000	
21.57825000000000	13.39793000000000	224.34177600000001	-8.66847700000000	0.41535000000000	0.00000000000000	0.10073600000000	-59.08977700000000	684.48520699999995	-41.59821600000000	0.17951100000000	0.00000000000000	-0.10810900000000	0.00000000000000	-11.27869900000000	0.00000000000000	0.00000000000000	-26.73184300000000	0.00000000000000	
21.57992100000000	14.86255800000000	233.10323700000001	-7.68753000000000	0.41637300000000	0.00000000000000	0.10111700000000	-59.72842000000000	677.76021300000002	-40.64844200000000	0.17868000000000	0.00000000000000	-0.10790700000000	0.00000000000000	-10.73489600000000	0.00000000000000	0.00000000000000	-26.52360300000000	0.00000000000000	
21.58159400000000	16.36869000000000	241.93774199999999	-6.64815200000000	0.41738100000000	0.00000000000000	0.10148600000000	-60.34599600000000	670.85078299999998	-39.68420900000000	0.17785800000000	0.00000000000000	-0.10770100000000	0.00000000000000	-10.14740700000000	0.00000000000000	0.00000000000000	-26.30950700000000	0.00000000000000	
21.58324700000000	17.91386900000000	250.83468199999999	-5.55141500000000	0.41837300000000	0.00000000000000	0.10184200000000	-60.94001500000000	663.75703299999998	-38.70641100000000	0.17704600000000	0.00000000000000	-0.10749200000000	0.00000000000000	-9.51660400000000	0.00000000000000	0.00000000000000	-26.08924500000000	0.00000000000000	
21.58491900000000	19.49505000000000	259.78545800000001	-4.39942000000000	0.41934900000000	0.00000000000000	0.10218600000000	-61.50796500000000	656.47933799999998	-37.71598400000000	0.17624600000000	0.00000000000000	-0.10727700000000	0.00000000000000	-8.84370900000000	0.00000000000000	0.00000000000000	-25.86250900000000	0.00000000000000	
21.58658200000000	21.10871500000000	268.78317500000003	-3.19511500000000	0.42030700000000	0.00000000000000	0.10251900000000	-62.04732200000000	649.01833499999998	-36.71390400000000	0.17545800000000	0.00000000000000	-0.10705900000000	0.00000000000000	-8.13063900000000	0.00000000000000	0.00000000000000	-25.62898900000000	0.00000000000000	
21.58824900000000	22.75098700000000	277.82227599999999	-1.94209100000000	0.42124700000000	0.00000000000000	0.10284100000000	-62.55556300000000	641.37493099999995	-35.70119200000000	0.17468400000000	0.00000000000000	-0.10683600000000	0.00000000000000	-7.37984700000000	0.00000000000000	0.00000000000000	-25.38837900000000	0.00000000000000	
